<mxfile host="app.diagrams.net" agent="Mozilla/5.0 (X11; Linux x86_64) AppleWebKit/537.36 (KHTML, like Gecko) Chrome/122.0.0.0 Safari/537.36" version="24.7.17">
  <diagram name="Page-1" id="W4yna8UcMUhT4XwFUqfj">
    <mxGraphModel dx="1195" dy="739" grid="1" gridSize="10" guides="1" tooltips="1" connect="1" arrows="1" fold="1" page="1" pageScale="1" pageWidth="1200" pageHeight="400" math="0" shadow="0">
      <root>
        <mxCell id="0" />
        <mxCell id="1" parent="0" />
        <mxCell id="rYvbzcU5giqxsE2-Gbjs-3" value="&lt;font style=&quot;font-size: 16px;&quot;&gt;Gap-filling&lt;/font&gt;" style="swimlane;whiteSpace=wrap;html=1;labelBackgroundColor=none;rounded=1;fillColor=#f5f5f5;strokeColor=#707070;fontColor=#363636;fontSize=16;" parent="1" vertex="1">
          <mxGeometry x="405" y="40" width="440" height="260" as="geometry" />
        </mxCell>
        <mxCell id="rYvbzcU5giqxsE2-Gbjs-68" value="&lt;span style=&quot;font-size: 15.5px;&quot;&gt;qc_obs +&amp;nbsp;&lt;br style=&quot;font-size: 15.5px;&quot;&gt;&lt;/span&gt;&lt;span style=&quot;font-size: 15.5px;&quot;&gt;bc_pred&amp;nbsp;&lt;/span&gt;&lt;div style=&quot;font-size: 15.5px;&quot;&gt;&lt;span style=&quot;font-size: 15.5px;&quot;&gt;&lt;span style=&quot;font-size: 15.5px;&quot;&gt;(&lt;b&gt;obs_bc&lt;/b&gt;)&lt;/span&gt;&lt;/span&gt;&lt;/div&gt;" style="rounded=1;whiteSpace=wrap;html=1;labelBackgroundColor=none;fillColor=#A7C7E7;strokeColor=#A7C7E7;fontSize=15.5;fontColor=#404040;textShadow=1;labelBorderColor=none;" parent="rYvbzcU5giqxsE2-Gbjs-3" vertex="1">
          <mxGeometry x="310.25000000000006" y="193.75" width="122.5" height="55" as="geometry" />
        </mxCell>
        <mxCell id="Sh1Jm_TLHkkye5z9uw8q-108" style="edgeStyle=orthogonalEdgeStyle;rounded=0;orthogonalLoop=1;jettySize=auto;html=1;entryX=0.5;entryY=0;entryDx=0;entryDy=0;endArrow=open;endFill=0;endSize=8;strokeColor=#424242;fontSize=15.5;" edge="1" parent="rYvbzcU5giqxsE2-Gbjs-3" source="rYvbzcU5giqxsE2-Gbjs-58" target="Sh1Jm_TLHkkye5z9uw8q-64">
          <mxGeometry relative="1" as="geometry" />
        </mxCell>
        <mxCell id="rYvbzcU5giqxsE2-Gbjs-58" value="&lt;span style=&quot;font-size: 15.5px;&quot;&gt;Model prediction&lt;/span&gt;&lt;div style=&quot;font-size: 15.5px;&quot;&gt;&lt;span style=&quot;font-size: 15.5px;&quot;&gt;&lt;span style=&quot;font-size: 15.5px;&quot;&gt;(&lt;b&gt;mod_pred&lt;/b&gt;)&lt;/span&gt;&lt;/span&gt;&lt;/div&gt;" style="rounded=1;whiteSpace=wrap;html=1;labelBackgroundColor=none;fillColor=#A7C7E7;strokeColor=#A7C7E7;fontSize=15.5;fontColor=#404040;textShadow=1;labelBorderColor=none;" parent="rYvbzcU5giqxsE2-Gbjs-3" vertex="1">
          <mxGeometry x="154.00000000000006" y="125" width="122.5" height="50" as="geometry" />
        </mxCell>
        <mxCell id="Sh1Jm_TLHkkye5z9uw8q-1" value="&lt;span style=&quot;font-size: 15.5px;&quot;&gt;Model error&lt;/span&gt;&lt;div style=&quot;font-size: 15.5px;&quot;&gt;&lt;span style=&quot;font-size: 15.5px;&quot;&gt;(&lt;b style=&quot;font-size: 15.5px;&quot;&gt;err&lt;/b&gt;)&lt;/span&gt;&lt;/div&gt;" style="rounded=1;whiteSpace=wrap;html=1;labelBackgroundColor=none;fillColor=#A7C7E7;strokeColor=#A7C7E7;fontSize=15.5;fontColor=#404040;textShadow=1;labelBorderColor=none;" vertex="1" parent="rYvbzcU5giqxsE2-Gbjs-3">
          <mxGeometry x="7.250000000000114" y="125" width="122.5" height="50" as="geometry" />
        </mxCell>
        <mxCell id="Sh1Jm_TLHkkye5z9uw8q-105" style="edgeStyle=orthogonalEdgeStyle;rounded=0;orthogonalLoop=1;jettySize=auto;html=1;endArrow=open;endFill=0;endSize=8;strokeColor=#424242;fontSize=15.5;" edge="1" parent="rYvbzcU5giqxsE2-Gbjs-3" source="rYvbzcU5giqxsE2-Gbjs-43" target="Sh1Jm_TLHkkye5z9uw8q-1">
          <mxGeometry relative="1" as="geometry">
            <Array as="points">
              <mxPoint x="141" y="110" />
              <mxPoint x="69" y="110" />
            </Array>
          </mxGeometry>
        </mxCell>
        <mxCell id="Sh1Jm_TLHkkye5z9uw8q-106" style="edgeStyle=orthogonalEdgeStyle;rounded=0;orthogonalLoop=1;jettySize=auto;html=1;endArrow=open;endFill=0;endSize=8;strokeColor=#424242;fontSize=15.5;" edge="1" parent="rYvbzcU5giqxsE2-Gbjs-3" source="rYvbzcU5giqxsE2-Gbjs-43" target="rYvbzcU5giqxsE2-Gbjs-58">
          <mxGeometry relative="1" as="geometry">
            <Array as="points">
              <mxPoint x="141" y="110" />
              <mxPoint x="215" y="110" />
            </Array>
          </mxGeometry>
        </mxCell>
        <mxCell id="rYvbzcU5giqxsE2-Gbjs-43" value="&lt;font style=&quot;font-size: 15.5px;&quot;&gt;Regression and &lt;br style=&quot;font-size: 15.5px;&quot;&gt;classification model&lt;/font&gt;" style="rounded=1;whiteSpace=wrap;html=1;labelBackgroundColor=none;fillColor=#FFF9C4;strokeColor=#FFF9C4;fontSize=15.5;fontColor=#404040;textShadow=1;labelBorderColor=none;" parent="rYvbzcU5giqxsE2-Gbjs-3" vertex="1">
          <mxGeometry x="32.56000000000005" y="40" width="216.25" height="60" as="geometry" />
        </mxCell>
        <mxCell id="rYvbzcU5giqxsE2-Gbjs-59" value="&lt;span style=&quot;font-size: 15.5px;&quot;&gt;Auxiliary&amp;nbsp;&lt;/span&gt;&lt;div style=&quot;font-size: 15.5px;&quot;&gt;&lt;span style=&quot;font-size: 15.5px;&quot;&gt;datasets&lt;/span&gt;&lt;/div&gt;" style="rounded=1;whiteSpace=wrap;html=1;labelBackgroundColor=none;fontSize=15.5;fillColor=#f8cecc;strokeColor=#FADADD;fontColor=#404040;textShadow=1;labelBorderColor=none;" parent="rYvbzcU5giqxsE2-Gbjs-3" vertex="1">
          <mxGeometry x="300.75000000000006" y="50" width="122.5" height="40" as="geometry" />
        </mxCell>
        <mxCell id="rYvbzcU5giqxsE2-Gbjs-82" value="&lt;span style=&quot;font-size: 15.5px;&quot;&gt;qc_obs + mod_pred&lt;/span&gt;&lt;div style=&quot;font-size: 15.5px;&quot;&gt;&lt;span style=&quot;font-size: 15.5px;&quot;&gt;(&lt;b style=&quot;font-size: 15.5px;&quot;&gt;obs_mod&lt;/b&gt;)&lt;/span&gt;&lt;/div&gt;" style="rounded=1;whiteSpace=wrap;html=1;labelBackgroundColor=none;fillColor=#A7C7E7;strokeColor=#A7C7E7;fontSize=15.5;fontColor=#404040;textShadow=1;labelBorderColor=none;" parent="rYvbzcU5giqxsE2-Gbjs-3" vertex="1">
          <mxGeometry x="310.25" y="120" width="122.5" height="60" as="geometry" />
        </mxCell>
        <mxCell id="rYvbzcU5giqxsE2-Gbjs-86" style="edgeStyle=orthogonalEdgeStyle;rounded=0;orthogonalLoop=1;jettySize=auto;html=1;labelBackgroundColor=none;fontColor=#545454;fontSize=15.5;strokeColor=#424242;textShadow=1;labelBorderColor=none;endArrow=open;endFill=0;endSize=8;" parent="rYvbzcU5giqxsE2-Gbjs-3" source="rYvbzcU5giqxsE2-Gbjs-59" target="rYvbzcU5giqxsE2-Gbjs-43" edge="1">
          <mxGeometry relative="1" as="geometry">
            <Array as="points">
              <mxPoint x="285.5" y="70" />
              <mxPoint x="285.5" y="70" />
            </Array>
          </mxGeometry>
        </mxCell>
        <mxCell id="rYvbzcU5giqxsE2-Gbjs-109" style="edgeStyle=orthogonalEdgeStyle;rounded=0;orthogonalLoop=1;jettySize=auto;html=1;labelBackgroundColor=none;fontColor=#545454;fontSize=15.5;strokeColor=#424242;textShadow=1;labelBorderColor=none;endArrow=open;endFill=0;endSize=8;" parent="rYvbzcU5giqxsE2-Gbjs-3" source="rYvbzcU5giqxsE2-Gbjs-58" target="rYvbzcU5giqxsE2-Gbjs-82" edge="1">
          <mxGeometry relative="1" as="geometry" />
        </mxCell>
        <mxCell id="Sh1Jm_TLHkkye5z9uw8q-70" style="edgeStyle=orthogonalEdgeStyle;rounded=0;orthogonalLoop=1;jettySize=auto;html=1;entryX=0;entryY=0.5;entryDx=0;entryDy=0;endArrow=open;endFill=0;endSize=8;strokeColor=#424242;fontSize=15.5;" edge="1" parent="rYvbzcU5giqxsE2-Gbjs-3" source="Sh1Jm_TLHkkye5z9uw8q-61" target="Sh1Jm_TLHkkye5z9uw8q-64">
          <mxGeometry relative="1" as="geometry" />
        </mxCell>
        <mxCell id="Sh1Jm_TLHkkye5z9uw8q-61" value="&lt;font style=&quot;font-size: 15.5px;&quot;&gt;Bias-&lt;/font&gt;&lt;span style=&quot;font-size: 15.5px; background-color: initial;&quot;&gt;correction&lt;/span&gt;" style="rounded=1;whiteSpace=wrap;html=1;labelBackgroundColor=none;fillColor=#FFF9C4;strokeColor=#FFF9C4;fontSize=15.5;fontColor=#404040;textShadow=1;labelBorderColor=none;" vertex="1" parent="rYvbzcU5giqxsE2-Gbjs-3">
          <mxGeometry x="14.25" y="196.25" width="101" height="50" as="geometry" />
        </mxCell>
        <mxCell id="Sh1Jm_TLHkkye5z9uw8q-110" style="edgeStyle=orthogonalEdgeStyle;rounded=0;orthogonalLoop=1;jettySize=auto;html=1;entryX=-0.007;entryY=0.498;entryDx=0;entryDy=0;endArrow=open;endFill=0;endSize=8;entryPerimeter=0;strokeColor=#424242;fontSize=15.5;" edge="1" parent="rYvbzcU5giqxsE2-Gbjs-3" source="Sh1Jm_TLHkkye5z9uw8q-64" target="rYvbzcU5giqxsE2-Gbjs-68">
          <mxGeometry relative="1" as="geometry" />
        </mxCell>
        <mxCell id="Sh1Jm_TLHkkye5z9uw8q-64" value="&lt;font style=&quot;font-size: 15.5px;&quot;&gt;Bias-corrected mod_pred&lt;/font&gt;&lt;font style=&quot;font-size: 15.5px;&quot;&gt; (&lt;b style=&quot;font-size: 15.5px;&quot;&gt;bc_pred&lt;/b&gt;)&lt;/font&gt;" style="rounded=1;whiteSpace=wrap;html=1;labelBackgroundColor=none;fillColor=#A7C7E7;strokeColor=#A7C7E7;fontSize=15.5;fontColor=#404040;textShadow=1;labelBorderColor=none;" vertex="1" parent="rYvbzcU5giqxsE2-Gbjs-3">
          <mxGeometry x="140.25" y="196.25" width="150" height="50" as="geometry" />
        </mxCell>
        <mxCell id="rYvbzcU5giqxsE2-Gbjs-4" value="&lt;font style=&quot;font-size: 16px;&quot;&gt;Homogeneization&lt;/font&gt;" style="swimlane;whiteSpace=wrap;html=1;labelBackgroundColor=none;rounded=1;fillColor=#f5f5f5;strokeColor=#707070;fontColor=#363636;fontSize=16;" parent="1" vertex="1">
          <mxGeometry x="865" y="40" width="260" height="260" as="geometry" />
        </mxCell>
        <mxCell id="rYvbzcU5giqxsE2-Gbjs-103" value="&lt;b style=&quot;&quot;&gt;&lt;font style=&quot;font-size: 15.25px;&quot;&gt;hmg_obs_mod&lt;/font&gt;&lt;/b&gt;" style="rounded=1;whiteSpace=wrap;html=1;labelBackgroundColor=none;fillColor=#A7C7E7;strokeColor=#A7C7E7;fontSize=15.5;fontColor=#404040;textShadow=1;labelBorderColor=none;" parent="rYvbzcU5giqxsE2-Gbjs-4" vertex="1">
          <mxGeometry x="10" y="210" width="110" height="40" as="geometry" />
        </mxCell>
        <mxCell id="rYvbzcU5giqxsE2-Gbjs-104" value="&lt;span style=&quot;font-size: 15.5px;&quot;&gt;&lt;b style=&quot;font-size: 15.5px;&quot;&gt;hmg_obs_bc&lt;/b&gt;&lt;/span&gt;" style="rounded=1;whiteSpace=wrap;html=1;labelBackgroundColor=none;fillColor=#A7C7E7;strokeColor=#A7C7E7;fontSize=15.5;fontColor=#404040;textShadow=1;labelBorderColor=none;" parent="rYvbzcU5giqxsE2-Gbjs-4" vertex="1">
          <mxGeometry x="140" y="210" width="110" height="40" as="geometry" />
        </mxCell>
        <mxCell id="Sh1Jm_TLHkkye5z9uw8q-46" style="edgeStyle=orthogonalEdgeStyle;rounded=0;orthogonalLoop=1;jettySize=auto;html=1;fontSize=15.5;fontColor=#545454;strokeColor=#424242;textShadow=1;labelBorderColor=none;labelBackgroundColor=none;endSize=8;endArrow=open;endFill=0;" edge="1" parent="rYvbzcU5giqxsE2-Gbjs-4" source="Sh1Jm_TLHkkye5z9uw8q-39" target="rYvbzcU5giqxsE2-Gbjs-103">
          <mxGeometry relative="1" as="geometry" />
        </mxCell>
        <mxCell id="Sh1Jm_TLHkkye5z9uw8q-47" style="edgeStyle=orthogonalEdgeStyle;rounded=0;orthogonalLoop=1;jettySize=auto;html=1;dashed=1;dashPattern=1 1;fontSize=15.5;fontColor=#545454;strokeColor=#424242;textShadow=1;labelBorderColor=none;labelBackgroundColor=none;endSize=8;endArrow=open;endFill=0;" edge="1" parent="rYvbzcU5giqxsE2-Gbjs-4" source="Sh1Jm_TLHkkye5z9uw8q-39" target="rYvbzcU5giqxsE2-Gbjs-104">
          <mxGeometry relative="1" as="geometry" />
        </mxCell>
        <mxCell id="Sh1Jm_TLHkkye5z9uw8q-39" value="&lt;font style=&quot;font-size: 15.5px;&quot;&gt;Correction&lt;/font&gt;" style="rounded=1;whiteSpace=wrap;html=1;labelBackgroundColor=none;fillColor=#FFF9C4;strokeColor=#FFF9C4;fontSize=15.5;fontColor=#404040;textShadow=1;labelBorderColor=none;" vertex="1" parent="rYvbzcU5giqxsE2-Gbjs-4">
          <mxGeometry x="67.5" y="130" width="125" height="40" as="geometry" />
        </mxCell>
        <mxCell id="Sh1Jm_TLHkkye5z9uw8q-42" style="edgeStyle=orthogonalEdgeStyle;rounded=0;orthogonalLoop=1;jettySize=auto;html=1;entryX=0.5;entryY=0;entryDx=0;entryDy=0;fontSize=15.5;fontColor=#545454;strokeColor=#424242;textShadow=1;labelBorderColor=none;labelBackgroundColor=none;endSize=8;endArrow=open;endFill=0;" edge="1" parent="rYvbzcU5giqxsE2-Gbjs-4" source="Sh1Jm_TLHkkye5z9uw8q-41" target="Sh1Jm_TLHkkye5z9uw8q-39">
          <mxGeometry relative="1" as="geometry" />
        </mxCell>
        <mxCell id="Sh1Jm_TLHkkye5z9uw8q-41" value="&lt;font style=&quot;font-size: 15.5px;&quot;&gt;Detection&lt;/font&gt;" style="rounded=1;whiteSpace=wrap;html=1;labelBackgroundColor=none;fillColor=#FFF9C4;strokeColor=#FFF9C4;fontSize=15.5;fontColor=#404040;textShadow=1;labelBorderColor=none;" vertex="1" parent="rYvbzcU5giqxsE2-Gbjs-4">
          <mxGeometry x="67.5" y="60" width="125" height="40" as="geometry" />
        </mxCell>
        <mxCell id="rYvbzcU5giqxsE2-Gbjs-1" value="&lt;font style=&quot;font-size: 16px;&quot;&gt;Unification&lt;/font&gt;" style="swimlane;whiteSpace=wrap;html=1;labelBackgroundColor=none;rounded=1;fillColor=#f5f5f5;strokeColor=#707070;fontColor=#363636;fontSize=16;" parent="1" vertex="1">
          <mxGeometry x="75" y="40" width="140" height="260" as="geometry">
            <mxRectangle x="90" y="280" width="100" height="30" as="alternateBounds" />
          </mxGeometry>
        </mxCell>
        <mxCell id="rYvbzcU5giqxsE2-Gbjs-2" value="&lt;font style=&quot;font-size: 16px;&quot;&gt;Quality Control&lt;/font&gt;" style="swimlane;whiteSpace=wrap;html=1;startSize=23;labelBackgroundColor=none;rounded=1;fillColor=#f5f5f5;strokeColor=#707070;fontColor=#363636;fontSize=16;" parent="1" vertex="1">
          <mxGeometry x="235" y="40" width="150" height="260" as="geometry">
            <mxRectangle x="50" y="130" width="130" height="30" as="alternateBounds" />
          </mxGeometry>
        </mxCell>
        <mxCell id="rYvbzcU5giqxsE2-Gbjs-132" value="&lt;span style=&quot;font-size: 15.5px;&quot;&gt;Quality-controlled precipitation (&lt;b style=&quot;font-size: 15.5px;&quot;&gt;qc_obs&lt;/b&gt;)&lt;/span&gt;" style="rounded=1;whiteSpace=wrap;html=1;labelBackgroundColor=none;fillColor=#A7C7E7;strokeColor=#A7C7E7;fontSize=15.5;fontColor=#404040;textShadow=1;labelBorderColor=none;" parent="rYvbzcU5giqxsE2-Gbjs-2" vertex="1">
          <mxGeometry x="12.5" y="193.75" width="130" height="55" as="geometry" />
        </mxCell>
        <mxCell id="rYvbzcU5giqxsE2-Gbjs-121" value="&lt;font style=&quot;font-size: 15.5px;&quot;&gt;Standard&lt;/font&gt;" style="rounded=1;whiteSpace=wrap;html=1;labelBackgroundColor=none;fillColor=#FFF9C4;strokeColor=#FFF9C4;fontSize=15.5;fontColor=#404040;textShadow=1;labelBorderColor=none;" parent="rYvbzcU5giqxsE2-Gbjs-2" vertex="1">
          <mxGeometry x="15" y="60" width="125" height="40" as="geometry" />
        </mxCell>
        <mxCell id="rYvbzcU5giqxsE2-Gbjs-38" value="&lt;font style=&quot;font-size: 15.5px;&quot;&gt;Enhanced&lt;/font&gt;" style="rounded=1;whiteSpace=wrap;html=1;labelBackgroundColor=none;fillColor=#FFF9C4;strokeColor=#FFF9C4;fontSize=15.5;fontColor=#404040;textShadow=1;labelBorderColor=none;" parent="rYvbzcU5giqxsE2-Gbjs-2" vertex="1">
          <mxGeometry x="15" y="130" width="125" height="40" as="geometry" />
        </mxCell>
        <mxCell id="rYvbzcU5giqxsE2-Gbjs-137" style="edgeStyle=orthogonalEdgeStyle;rounded=0;orthogonalLoop=1;jettySize=auto;html=1;labelBackgroundColor=none;fontColor=#545454;fontSize=15.5;strokeColor=#424242;textShadow=1;labelBorderColor=none;endArrow=open;endFill=0;endSize=8;" parent="rYvbzcU5giqxsE2-Gbjs-2" source="rYvbzcU5giqxsE2-Gbjs-121" target="rYvbzcU5giqxsE2-Gbjs-38" edge="1">
          <mxGeometry relative="1" as="geometry" />
        </mxCell>
        <mxCell id="rYvbzcU5giqxsE2-Gbjs-138" style="edgeStyle=orthogonalEdgeStyle;rounded=0;orthogonalLoop=1;jettySize=auto;html=1;entryX=0.5;entryY=0;entryDx=0;entryDy=0;labelBackgroundColor=none;fontColor=#545454;fontSize=15.5;strokeColor=#424242;textShadow=1;labelBorderColor=none;endArrow=open;endFill=0;endSize=8;" parent="rYvbzcU5giqxsE2-Gbjs-2" source="rYvbzcU5giqxsE2-Gbjs-38" target="rYvbzcU5giqxsE2-Gbjs-132" edge="1">
          <mxGeometry relative="1" as="geometry" />
        </mxCell>
        <mxCell id="rYvbzcU5giqxsE2-Gbjs-32" style="edgeStyle=orthogonalEdgeStyle;rounded=0;orthogonalLoop=1;jettySize=auto;html=1;labelBackgroundColor=none;fontColor=#545454;fontSize=15.5;strokeColor=#424242;textShadow=1;labelBorderColor=none;endSize=8;endArrow=open;endFill=0;" parent="1" source="rYvbzcU5giqxsE2-Gbjs-6" target="rYvbzcU5giqxsE2-Gbjs-30" edge="1">
          <mxGeometry relative="1" as="geometry" />
        </mxCell>
        <mxCell id="rYvbzcU5giqxsE2-Gbjs-6" value="&lt;font style=&quot;font-size: 15.5px;&quot;&gt;Raw precipitation&lt;/font&gt;" style="rounded=1;whiteSpace=wrap;html=1;labelBackgroundColor=none;fontSize=15.5;fillColor=#f8cecc;strokeColor=#FADADD;fontColor=#404040;textShadow=1;labelBorderColor=none;" parent="1" vertex="1">
          <mxGeometry x="82.5" y="120" width="125" height="40" as="geometry" />
        </mxCell>
        <mxCell id="Sh1Jm_TLHkkye5z9uw8q-50" style="edgeStyle=orthogonalEdgeStyle;rounded=0;orthogonalLoop=1;jettySize=auto;html=1;entryX=0.5;entryY=0;entryDx=0;entryDy=0;fontSize=15.5;fontColor=#545454;strokeColor=#424242;textShadow=1;labelBorderColor=none;labelBackgroundColor=none;endArrow=open;endFill=0;endSize=8;" edge="1" parent="1" source="rYvbzcU5giqxsE2-Gbjs-30" target="rYvbzcU5giqxsE2-Gbjs-121">
          <mxGeometry relative="1" as="geometry">
            <Array as="points">
              <mxPoint x="225" y="215" />
              <mxPoint x="225" y="80" />
              <mxPoint x="313" y="80" />
            </Array>
          </mxGeometry>
        </mxCell>
        <mxCell id="rYvbzcU5giqxsE2-Gbjs-30" value="&lt;font style=&quot;font-size: 15.5px;&quot;&gt;Unification and matching&lt;/font&gt;" style="rounded=1;whiteSpace=wrap;html=1;labelBackgroundColor=none;fillColor=#FFF9C4;strokeColor=#FFF9C4;fontSize=15.5;fontColor=#404040;textShadow=1;labelBorderColor=none;" parent="1" vertex="1">
          <mxGeometry x="82.5" y="190" width="125" height="50" as="geometry" />
        </mxCell>
        <mxCell id="Sh1Jm_TLHkkye5z9uw8q-10" style="edgeStyle=orthogonalEdgeStyle;rounded=0;orthogonalLoop=1;jettySize=auto;html=1;entryX=0;entryY=0.5;entryDx=0;entryDy=0;fontSize=15.5;fontColor=#545454;strokeColor=#424242;textShadow=1;labelBorderColor=none;labelBackgroundColor=none;endArrow=open;endFill=0;endSize=8;" edge="1" parent="1" source="rYvbzcU5giqxsE2-Gbjs-132" target="rYvbzcU5giqxsE2-Gbjs-43">
          <mxGeometry relative="1" as="geometry">
            <Array as="points">
              <mxPoint x="395" y="261" />
              <mxPoint x="395" y="110" />
            </Array>
          </mxGeometry>
        </mxCell>
        <mxCell id="Sh1Jm_TLHkkye5z9uw8q-48" style="edgeStyle=orthogonalEdgeStyle;rounded=0;orthogonalLoop=1;jettySize=auto;html=1;entryX=0.75;entryY=0;entryDx=0;entryDy=0;dashed=1;dashPattern=1 1;fontSize=15.5;fontColor=#545454;strokeColor=#424242;textShadow=1;labelBorderColor=none;labelBackgroundColor=none;endSize=8;endArrow=open;endFill=0;" edge="1" parent="1" source="rYvbzcU5giqxsE2-Gbjs-68" target="Sh1Jm_TLHkkye5z9uw8q-41">
          <mxGeometry relative="1" as="geometry">
            <Array as="points">
              <mxPoint x="855" y="264" />
              <mxPoint x="855" y="80" />
              <mxPoint x="1026" y="80" />
            </Array>
          </mxGeometry>
        </mxCell>
        <mxCell id="Sh1Jm_TLHkkye5z9uw8q-49" style="edgeStyle=orthogonalEdgeStyle;rounded=0;orthogonalLoop=1;jettySize=auto;html=1;entryX=0.25;entryY=0;entryDx=0;entryDy=0;fontSize=15.5;fontColor=#545454;strokeColor=#424242;textShadow=1;labelBorderColor=none;labelBackgroundColor=none;endSize=8;endArrow=open;endFill=0;" edge="1" parent="1" source="rYvbzcU5giqxsE2-Gbjs-82" target="Sh1Jm_TLHkkye5z9uw8q-41">
          <mxGeometry relative="1" as="geometry">
            <Array as="points">
              <mxPoint x="855" y="190" />
              <mxPoint x="855" y="80" />
              <mxPoint x="964" y="80" />
            </Array>
          </mxGeometry>
        </mxCell>
        <mxCell id="Sh1Jm_TLHkkye5z9uw8q-52" value="Raw" style="rounded=1;whiteSpace=wrap;html=1;labelBackgroundColor=none;fontSize=18;fillColor=#FADADD;strokeColor=#FADADD;fontColor=#404040;textShadow=1;" vertex="1" parent="1">
          <mxGeometry x="430" y="320" width="100" height="30" as="geometry" />
        </mxCell>
        <mxCell id="Sh1Jm_TLHkkye5z9uw8q-53" value="&lt;font style=&quot;font-size: 18px;&quot;&gt;Process&lt;/font&gt;" style="rounded=1;whiteSpace=wrap;html=1;labelBackgroundColor=none;fillColor=#FFF9C4;strokeColor=#FFF9C4;fontSize=18;fontColor=#404040;textShadow=1;" vertex="1" parent="1">
          <mxGeometry x="550" y="320" width="100" height="30" as="geometry" />
        </mxCell>
        <mxCell id="Sh1Jm_TLHkkye5z9uw8q-56" value="Output" style="rounded=1;whiteSpace=wrap;html=1;labelBackgroundColor=none;fontSize=18;fillColor=#A7C7E7;strokeColor=#A7C7E7;fontColor=#404040;textShadow=1;" vertex="1" parent="1">
          <mxGeometry x="670" y="320" width="100" height="30" as="geometry" />
        </mxCell>
        <mxCell id="Sh1Jm_TLHkkye5z9uw8q-62" value="" style="edgeStyle=orthogonalEdgeStyle;rounded=0;orthogonalLoop=1;jettySize=auto;html=1;entryX=0;entryY=0.5;entryDx=0;entryDy=0;fontSize=15.5;fontColor=#545454;strokeColor=#424242;textShadow=1;labelBorderColor=none;labelBackgroundColor=none;endArrow=open;endFill=0;endSize=8;" edge="1" parent="1" source="rYvbzcU5giqxsE2-Gbjs-132" target="Sh1Jm_TLHkkye5z9uw8q-61">
          <mxGeometry relative="1" as="geometry">
            <mxPoint x="378" y="264" as="sourcePoint" />
            <mxPoint x="548" y="264" as="targetPoint" />
          </mxGeometry>
        </mxCell>
      </root>
    </mxGraphModel>
  </diagram>
</mxfile>
